<mxfile host="app.diagrams.net" modified="2023-06-17T16:47:01.598Z" agent="Mozilla/5.0 (Windows NT 10.0; Win64; x64) AppleWebKit/537.36 (KHTML, like Gecko) Chrome/114.0.0.0 Safari/537.36" etag="D18O8L_zblyplpoFkUWc" version="21.4.0" type="device">
  <diagram name="Page-1" id="WbinfXFP_QlQa_suPX7t">
    <mxGraphModel dx="792" dy="1514" grid="0" gridSize="10" guides="1" tooltips="1" connect="1" arrows="1" fold="1" page="0" pageScale="1" pageWidth="827" pageHeight="1169" background="#ffffff" math="0" shadow="0">
      <root>
        <mxCell id="0" />
        <mxCell id="1" parent="0" />
        <mxCell id="dvUs014riZVsPpYmVROd-17" value="&lt;font color=&quot;#000000&quot;&gt;http&lt;/font&gt;" style="text;html=1;align=center;verticalAlign=middle;resizable=0;points=[];autosize=1;fillColor=none;" vertex="1" parent="1">
          <mxGeometry x="215" y="226" width="38" height="26" as="geometry" />
        </mxCell>
        <mxCell id="dvUs014riZVsPpYmVROd-14" value="" style="rounded=0;whiteSpace=wrap;html=1;dashed=1;fillColor=none;strokeColor=#0000FF;" vertex="1" parent="1">
          <mxGeometry x="280" y="60" width="400" height="270" as="geometry" />
        </mxCell>
        <mxCell id="dvUs014riZVsPpYmVROd-8" style="edgeStyle=orthogonalEdgeStyle;rounded=0;orthogonalLoop=1;jettySize=auto;html=1;exitX=1;exitY=0.5;exitDx=0;exitDy=0;entryX=0;entryY=0.25;entryDx=0;entryDy=0;startArrow=classic;startFill=1;strokeColor=#000000;dashed=1;" edge="1" parent="1" source="dvUs014riZVsPpYmVROd-1" target="dvUs014riZVsPpYmVROd-3">
          <mxGeometry relative="1" as="geometry" />
        </mxCell>
        <mxCell id="dvUs014riZVsPpYmVROd-1" value="Balance-bug 1" style="rounded=0;whiteSpace=wrap;html=1;fillColor=none;strokeColor=#000000;fontColor=#000000;" vertex="1" parent="1">
          <mxGeometry x="90" y="210" width="100" height="40" as="geometry" />
        </mxCell>
        <mxCell id="dvUs014riZVsPpYmVROd-10" style="edgeStyle=orthogonalEdgeStyle;rounded=0;orthogonalLoop=1;jettySize=auto;html=1;exitX=1;exitY=0.5;exitDx=0;exitDy=0;entryX=-0.007;entryY=0.85;entryDx=0;entryDy=0;entryPerimeter=0;startArrow=classic;startFill=1;strokeColor=#000000;dashed=1;" edge="1" parent="1" source="dvUs014riZVsPpYmVROd-2" target="dvUs014riZVsPpYmVROd-3">
          <mxGeometry relative="1" as="geometry" />
        </mxCell>
        <mxCell id="dvUs014riZVsPpYmVROd-2" value="Balance-bug 2" style="rounded=0;whiteSpace=wrap;html=1;fillColor=none;strokeColor=#000000;fontColor=#000000;" vertex="1" parent="1">
          <mxGeometry x="90" y="280" width="100" height="40" as="geometry" />
        </mxCell>
        <mxCell id="dvUs014riZVsPpYmVROd-11" style="edgeStyle=orthogonalEdgeStyle;rounded=0;orthogonalLoop=1;jettySize=auto;html=1;exitX=0.5;exitY=0;exitDx=0;exitDy=0;entryX=0.5;entryY=1;entryDx=0;entryDy=0;startArrow=classic;startFill=1;strokeColor=#000000;" edge="1" parent="1" source="dvUs014riZVsPpYmVROd-3" target="dvUs014riZVsPpYmVROd-4">
          <mxGeometry relative="1" as="geometry" />
        </mxCell>
        <mxCell id="dvUs014riZVsPpYmVROd-3" value="Backend" style="rounded=0;whiteSpace=wrap;html=1;strokeColor=#000000;fillColor=#FFFFFF;fontColor=#000000;" vertex="1" parent="1">
          <mxGeometry x="310" y="220" width="150" height="80" as="geometry" />
        </mxCell>
        <mxCell id="dvUs014riZVsPpYmVROd-4" value="Database" style="rounded=0;whiteSpace=wrap;html=1;fillColor=none;fontColor=#000000;strokeColor=#000000;" vertex="1" parent="1">
          <mxGeometry x="310" y="90" width="150" height="80" as="geometry" />
        </mxCell>
        <mxCell id="dvUs014riZVsPpYmVROd-12" style="edgeStyle=orthogonalEdgeStyle;rounded=0;orthogonalLoop=1;jettySize=auto;html=1;entryX=1;entryY=0.5;entryDx=0;entryDy=0;startArrow=classic;startFill=1;strokeColor=#000000;" edge="1" parent="1" source="dvUs014riZVsPpYmVROd-5" target="dvUs014riZVsPpYmVROd-3">
          <mxGeometry relative="1" as="geometry" />
        </mxCell>
        <mxCell id="dvUs014riZVsPpYmVROd-5" value="Frontend" style="rounded=0;whiteSpace=wrap;html=1;fontColor=#000000;fillColor=#FFFFFF;strokeColor=#000000;" vertex="1" parent="1">
          <mxGeometry x="510" y="220" width="150" height="80" as="geometry" />
        </mxCell>
        <mxCell id="dvUs014riZVsPpYmVROd-13" style="edgeStyle=orthogonalEdgeStyle;rounded=0;orthogonalLoop=1;jettySize=auto;html=1;exitX=0.5;exitY=0;exitDx=0;exitDy=0;startArrow=classic;startFill=1;dashed=1;strokeColor=#000000;" edge="1" parent="1" source="dvUs014riZVsPpYmVROd-6" target="dvUs014riZVsPpYmVROd-3">
          <mxGeometry relative="1" as="geometry" />
        </mxCell>
        <mxCell id="dvUs014riZVsPpYmVROd-6" value="Beacon System" style="rounded=0;whiteSpace=wrap;html=1;fillColor=none;strokeColor=#000000;fontColor=#000000;" vertex="1" parent="1">
          <mxGeometry x="335" y="380" width="100" height="40" as="geometry" />
        </mxCell>
        <mxCell id="dvUs014riZVsPpYmVROd-24" value="" style="edgeStyle=orthogonalEdgeStyle;rounded=0;orthogonalLoop=1;jettySize=auto;html=1;" edge="1" parent="1" source="dvUs014riZVsPpYmVROd-17" target="dvUs014riZVsPpYmVROd-3">
          <mxGeometry relative="1" as="geometry" />
        </mxCell>
        <mxCell id="dvUs014riZVsPpYmVROd-18" value="&lt;font color=&quot;#000000&quot;&gt;http&lt;/font&gt;" style="text;html=1;align=center;verticalAlign=middle;resizable=0;points=[];autosize=1;fillColor=none;" vertex="1" parent="1">
          <mxGeometry x="215" y="304" width="38" height="26" as="geometry" />
        </mxCell>
        <mxCell id="dvUs014riZVsPpYmVROd-19" value="&lt;font color=&quot;#000000&quot;&gt;http&lt;/font&gt;" style="text;html=1;align=center;verticalAlign=middle;resizable=0;points=[];autosize=1;fillColor=none;" vertex="1" parent="1">
          <mxGeometry x="466" y="234" width="38" height="26" as="geometry" />
        </mxCell>
        <mxCell id="dvUs014riZVsPpYmVROd-20" value="&lt;font color=&quot;#000000&quot;&gt;http&lt;/font&gt;" style="text;html=1;align=center;verticalAlign=middle;resizable=0;points=[];autosize=1;fillColor=none;" vertex="1" parent="1">
          <mxGeometry x="391" y="338" width="38" height="26" as="geometry" />
        </mxCell>
        <mxCell id="dvUs014riZVsPpYmVROd-21" value="&lt;font color=&quot;#000000&quot;&gt;TCP&lt;/font&gt;" style="text;html=1;align=center;verticalAlign=middle;resizable=0;points=[];autosize=1;fillColor=none;" vertex="1" parent="1">
          <mxGeometry x="385" y="184" width="42" height="26" as="geometry" />
        </mxCell>
        <mxCell id="dvUs014riZVsPpYmVROd-22" value="&lt;font color=&quot;#ff0000&quot; style=&quot;font-size: 26px;&quot;&gt;&lt;b&gt;&lt;u&gt;Web Server&lt;/u&gt;&lt;/b&gt;&lt;/font&gt;" style="text;html=1;align=center;verticalAlign=middle;resizable=0;points=[];autosize=1;strokeColor=none;fillColor=none;" vertex="1" parent="1">
          <mxGeometry x="492" y="108.5" width="161" height="43" as="geometry" />
        </mxCell>
        <mxCell id="dvUs014riZVsPpYmVROd-23" value="&lt;b&gt;&lt;font size=&quot;1&quot; color=&quot;#000000&quot;&gt;&lt;u style=&quot;font-size: 29px;&quot;&gt;High Level Connectivity&lt;/u&gt;&lt;/font&gt;&lt;/b&gt;" style="text;html=1;align=center;verticalAlign=middle;resizable=0;points=[];autosize=1;strokeColor=none;fillColor=none;" vertex="1" parent="1">
          <mxGeometry x="211.5" y="-11" width="347" height="47" as="geometry" />
        </mxCell>
      </root>
    </mxGraphModel>
  </diagram>
</mxfile>
